<svg width="109" height="106" viewBox="0 0 109 106" fill="none" xmlns="http://www.w3.org/2000/svg">
<path d="M58.4366 0H62.8106C64.5283 1.12903 65.086 3.06808 66.4847 4.3514C67.7455 5.50813 69.8334 5.93626 71.5586 8.18062C72.1826 8.99249 76.6324 12.0099 76.6324 12.0099C76.6324 12.0099 78.269 11.0319 78.7319 10.7915C79.2906 10.5014 80.3151 11.5138 81.1814 12.8801C81.3849 13.2011 81.4923 13.5416 81.5872 13.8893L82.2311 15.491L83.8318 16.5934C84.0865 16.7301 84.322 16.8744 84.5056 17.0575C85.4229 17.9718 85.9238 19.0827 86.2552 19.1461L94.3034 19.3202C94.8866 19.4943 95.703 22.8013 95.703 22.8013C100.777 22.8013 99.9615 23.5469 102.002 24.0197C103.813 24.4396 105.544 24.488 105.676 25.4122C108.047 26.1788 107.135 26.5085 109 26.6305V30.6338L107.425 34.4631L102.876 41.4253V48.2135L99.7271 49.4319L96.2279 52.7389L94.4783 55.6979V56.6513C94.4783 56.6513 96.7528 56.22 98.1525 58.8309C99.5522 61.4417 98.1525 80.5879 98.1525 80.5879C98.1525 80.5879 103.801 81.11 104.101 81.9803C104.401 82.8506 103.751 89.8128 102.876 90.1609C102.002 90.509 100.377 91.2746 99.5522 91.7274C98.0358 93.642 94.3734 97.7149 91.8539 98.6897C88.7047 99.9081 79.7817 96.601 77.3323 95.2085C75.3727 94.0946 70.1006 96.3689 67.7095 97.6453V103.215C67.2429 104.143 65.9249 106 64.3852 106H54.5875C53.0711 104.375 49.4436 101.161 47.0642 101.3C44.6847 101.44 43.2734 101.939 42.8652 102.171C40.7073 102.113 35.6918 101.579 32.8924 99.908C29.3932 97.8194 25.0192 98.5156 24.1444 95.0345C23.2696 91.5534 27.1188 79.8916 27.6436 80.7619C28.1685 81.6322 28.3434 61.4417 27.6436 61.4417C26.9438 61.4417 25.0193 60.5714 22.9198 57.7865C20.8202 55.0016 20.9952 51.1724 18.0209 49.4319C15.0466 47.6913 12.0722 47.6913 11.8973 45.7767L5.94864 46.9951C4.43232 46.4149 1.3297 43.9317 1.04976 38.6404H0V31.33C2.97432 30.3437 9.02859 27.6358 10.8475 26.6305C12.4222 25.7603 14.8716 26.6305 18.1958 26.6305C19.5955 28.3711 21.2193 29.1473 25.3692 28.8933L24.6694 27.6749L23.4446 25.064L22.2199 22.8013C21.94 22.9406 21.7534 19.7263 21.695 18.1018C21.9283 17.9858 22.4998 17.5796 22.9198 16.8834C23.3397 16.1872 29.5099 16.5933 32.5425 16.8834C33.0091 17.2315 33.9422 18.4151 33.9422 20.3645H37.4414C38.4329 18.682 41.0456 15.1429 43.565 14.4466C46.7143 13.5764 47.939 13.9245 49.3387 13.2282C50.7384 12.532 48.8138 5.9179 49.6886 3.65517C50.3885 1.84499 55.8122 0.464149 58.4366 0Z" fill="#C4C4C4" fill-opacity="0.51"/>
</svg>
