<svg width="212" height="88" viewBox="0 0 212 88" fill="none" xmlns="http://www.w3.org/2000/svg">
<g clip-path="url(#clip0_1_8)">
<path d="M74.6367 88C74.6367 75.5348 70.705 63.5802 63.7064 54.766C56.7079 45.9518 47.2158 41 37.3184 41C27.4209 41 17.9288 45.9518 10.9303 54.766C3.93175 63.5802 1.49447e-06 75.5348 0 88H37.3184H74.6367Z" fill="white"/>
<path d="M168.33 88C168.33 64.661 160.968 42.2778 147.864 25.7746C134.761 9.2714 116.988 1.76205e-06 98.4569 0C79.9255 -1.76205e-06 62.1532 9.2714 49.0495 25.7746C35.9458 42.2778 28.5843 64.6609 28.5843 88H98.4569H168.33Z" fill="white"/>
<path d="M148.479 88C148.479 77.3913 151.826 67.2172 157.782 59.7157C163.738 52.2143 171.816 48 180.24 48C188.663 48 196.741 52.2143 202.698 59.7157C208.654 67.2172 212 77.3913 212 88H180.24H148.479Z" fill="white"/>
</g>
<defs>
<clipPath id="clip0_1_8">
<rect width="212" height="88" fill="white"/>
</clipPath>
</defs>
</svg>
