<svg width="109" height="109" viewBox="0 0 109 109" fill="none" xmlns="http://www.w3.org/2000/svg">
<circle cx="54.5" cy="54.5" r="53" stroke="#898989" stroke-width="3"/>
<path d="M96.5 54.5C96.5 84.1042 77.3981 107.5 54.5 107.5C31.6019 107.5 12.5 84.1042 12.5 54.5C12.5 24.8958 31.6019 1.5 54.5 1.5C77.3981 1.5 96.5 24.8958 96.5 54.5Z" stroke="#898989" stroke-width="3"/>
<path d="M82.5 54.5C82.5 69.35 79.2387 82.7198 74.0405 92.3233C68.8102 101.986 61.834 107.5 54.5 107.5C47.166 107.5 40.1898 101.986 34.9595 92.3233C29.7613 82.7198 26.5 69.35 26.5 54.5C26.5 39.65 29.7613 26.2802 34.9595 16.6767C40.1898 7.01396 47.166 1.5 54.5 1.5C61.834 1.5 68.8102 7.01396 74.0405 16.6767C79.2387 26.2802 82.5 39.65 82.5 54.5Z" stroke="#898989" stroke-width="3"/>
<path d="M68.5 54.5C68.5 69.4516 66.7747 82.932 64.0174 92.627C62.6358 97.4847 61.0188 101.307 59.2885 103.88C57.5222 106.507 55.8756 107.5 54.5 107.5C53.1244 107.5 51.4778 106.507 49.7115 103.88C47.9812 101.307 46.3642 97.4847 44.9826 92.627C42.2253 82.932 40.5 69.4516 40.5 54.5C40.5 39.5484 42.2253 26.068 44.9826 16.373C46.3642 11.5153 47.9812 7.69308 49.7115 5.11987C51.4778 2.49293 53.1244 1.5 54.5 1.5C55.8756 1.5 57.5222 2.49293 59.2885 5.11987C61.0188 7.69308 62.6358 11.5153 64.0174 16.373C66.7747 26.068 68.5 39.5484 68.5 54.5Z" stroke="#898989" stroke-width="3"/>
<path d="M107.5 54.5C107.5 55.8756 106.507 57.5222 103.88 59.2885C101.307 61.0188 97.4847 62.6358 92.627 64.0174C82.932 66.7747 69.4516 68.5 54.5 68.5C39.5484 68.5 26.068 66.7747 16.373 64.0174C11.5153 62.6358 7.69308 61.0188 5.11987 59.2885C2.49293 57.5222 1.5 55.8756 1.5 54.5C1.5 53.1244 2.49293 51.4778 5.11987 49.7115C7.69308 47.9812 11.5153 46.3642 16.373 44.9826C26.068 42.2253 39.5484 40.5 54.5 40.5C69.4516 40.5 82.932 42.2253 92.627 44.9826C97.4847 46.3642 101.307 47.9812 103.88 49.7115C106.507 51.4778 107.5 53.1244 107.5 54.5Z" stroke="#898989" stroke-width="3"/>
<path d="M107.5 54.5C107.5 63.6291 101.818 72.0926 92.2186 78.3454C82.6331 84.5892 69.3018 88.5 54.5 88.5C39.6982 88.5 26.3669 84.5892 16.7814 78.3454C7.18201 72.0926 1.5 63.6291 1.5 54.5C1.5 45.3709 7.18201 36.9074 16.7814 30.6546C26.3669 24.4108 39.6982 20.5 54.5 20.5C69.3018 20.5 82.6331 24.4108 92.2186 30.6546C101.818 36.9074 107.5 45.3709 107.5 54.5Z" stroke="#898989" stroke-width="3"/>
</svg>
