<?xml version="1.0" encoding="utf-8"?>
<!-- Generator: Adobe Illustrator 26.0.1, SVG Export Plug-In . SVG Version: 6.00 Build 0)  -->
<svg version="1.1" id="Calque_1" xmlns="http://www.w3.org/2000/svg" xmlns:xlink="http://www.w3.org/1999/xlink" x="0px" y="0px"
	 viewBox="0 0 24 24" style="enable-background:new 0 0 24 24;" xml:space="preserve">
<style type="text/css">
	.st0{fill:#FFFFFF;}
</style>
<path class="st0" d="M18,1.6c-1-0.1-2-0.2-3-0.2c-3.4,0-5.5,2.1-5.5,5.6v2.3H6.7c-0.3,0-0.5,0.2-0.5,0.5v3.9c0,0.3,0.2,0.5,0.5,0.5
	h2.8v7.7c0,0.3,0.2,0.5,0.5,0.5h4c0.3,0,0.5-0.2,0.5-0.5v-7.7h2.8c0.3,0,0.5-0.2,0.5-0.4l0.5-3.9c0-0.3-0.2-0.5-0.4-0.6
	c0,0,0,0-0.1,0h-3.3v-2c0-1,0.2-1.4,1.4-1.4l2,0c0.3,0,0.5-0.2,0.5-0.5V2.1C18.4,1.8,18.2,1.6,18,1.6z M17.4,5l-1.5,0
	c-2.2,0-2.4,1.4-2.4,2.4v2.5c0,0.3,0.2,0.5,0.5,0.5h3.2l-0.4,2.9H14c-0.3,0-0.5,0.2-0.5,0.5v7.7h-3v-7.7c0-0.3-0.2-0.5-0.5-0.5H7.2
	v-2.9H10c0.3,0,0.5-0.2,0.5-0.5V7c0-2.9,1.7-4.6,4.5-4.6c1,0,1.9,0.1,2.5,0.1V5z"/>
</svg>
