<?xml version="1.0" encoding="utf-8"?>
<!-- Generator: Adobe Illustrator 26.0.1, SVG Export Plug-In . SVG Version: 6.00 Build 0)  -->
<svg version="1.1" id="Calque_1" xmlns="http://www.w3.org/2000/svg" xmlns:xlink="http://www.w3.org/1999/xlink" x="0px" y="0px"
	 viewBox="0 0 24 24" style="enable-background:new 0 0 24 24;" xml:space="preserve">
<style type="text/css">
	.st0{fill:#FFFFFF;}
</style>
<path class="st0" d="M7.5,9C7.5,9,7.5,9,7.5,9h-4C3.2,9,3,9.2,3,9.5c0,0,0,0,0,0v12C3,21.8,3.2,22,3.5,22c0,0,0,0,0,0h4
	C7.8,22,8,21.8,8,21.5c0,0,0,0,0,0v-12C8,9.2,7.8,9,7.5,9z M7,21H4V10h3V21z M18,9c-1.1,0-2.1,0.4-3,1V9.5C15,9.2,14.8,9,14.5,9
	c0,0,0,0,0,0h-4C10.2,9,10,9.2,10,9.5c0,0,0,0,0,0v12c0,0.3,0.2,0.5,0.5,0.5c0,0,0,0,0,0h4c0.3,0,0.5-0.2,0.5-0.5c0,0,0,0,0,0V16
	c0-0.8,0.7-1.5,1.5-1.5S18,15.2,18,16v5.5c0,0.3,0.2,0.5,0.5,0.5c0,0,0,0,0,0h4c0.3,0,0.5-0.2,0.5-0.5c0,0,0,0,0,0V14
	C23,11.2,20.8,9,18,9z M22,21h-3v-5c0-1.4-1.1-2.5-2.5-2.5S14,14.6,14,16v5h-3V10h3v1.2c0,0.2,0.1,0.4,0.3,0.5
	c0.2,0.1,0.4,0,0.6-0.2c1.4-1.7,3.9-2,5.6-0.7c1,0.8,1.5,1.9,1.5,3.1V21z M5.9,2C5.8,2,5.6,2,5.5,2C4,1.9,2.7,3,2.6,4.5
	c0,0.1,0,0.1,0,0.2c0,1.5,1.2,2.7,2.7,2.7c0.1,0,0.1,0,0.2,0h0c1.5,0.1,2.8-1,2.9-2.5S7.4,2.1,5.9,2z M5.8,6.5c-0.1,0-0.2,0-0.3,0h0
	c-1,0.1-1.8-0.6-1.9-1.6C3.5,3.9,4.2,3.1,5.2,3c0.1,0,0.2,0,0.3,0c1-0.1,1.8,0.6,1.9,1.6C7.5,5.5,6.8,6.4,5.8,6.5z"/>
</svg>
