<?xml version="1.0" encoding="utf-8"?>
<!-- Generator: Adobe Illustrator 26.0.1, SVG Export Plug-In . SVG Version: 6.00 Build 0)  -->
<svg version="1.1" id="Calque_1" xmlns="http://www.w3.org/2000/svg" xmlns:xlink="http://www.w3.org/1999/xlink" x="0px" y="0px"
	 viewBox="0 0 24 24" style="enable-background:new 0 0 24 24;" xml:space="preserve">
<style type="text/css">
	.st0{fill:#FFFFFF;}
</style>
<path class="st0" d="M22.5,3.6c0-0.3-0.2-0.5-0.5-0.5c-0.1,0-0.2,0-0.3,0.1c-0.7,0.4-1.5,0.7-2.3,0.9c-0.9-0.8-2-1.3-3.2-1.3
	c-2.6,0-4.7,2.1-4.7,4.7c0,0.1,0,0.3,0,0.4c-3-0.3-5.8-1.8-7.7-4.2C3.6,3.5,3.3,3.5,3.1,3.7c0,0-0.1,0.1-0.1,0.1
	C2.6,4.5,2.4,5.3,2.4,6.2c0,0.9,0.3,1.8,0.8,2.6c0,0,0,0-0.1,0c-0.2-0.1-0.3-0.1-0.5,0C2.4,8.9,2.3,9,2.3,9.2c0,0.1,0,0.2,0,0.4
	c0.1,1.3,0.8,2.6,1.8,3.4C4.1,13,4,13,3.9,13.1c-0.1,0.1-0.2,0.3-0.1,0.5c0.5,1.5,1.6,2.6,3.1,3.1c-1.5,0.8-3.2,1.2-4.9,1
	c-0.3,0-0.5,0.2-0.6,0.4c0,0.2,0.1,0.4,0.2,0.5c2,1.3,4.3,2,6.7,2c5.6,0.1,10.5-3.6,12-9C20.8,10.4,21,9.2,21,8c0-0.1,0-0.2,0-0.4
	C22,6.5,22.6,5.1,22.5,3.6z M20.1,7.1C20,7.2,20,7.3,20,7.5c0,0.2,0,0.4,0,0.5c0,1.1-0.2,2.2-0.5,3.2c-1.3,5-5.9,8.4-11,8.3
	c-1.5,0-3-0.3-4.4-0.9c1.7-0.2,3.2-0.8,4.5-1.9c0.2-0.2,0.3-0.5,0.1-0.7c-0.1-0.1-0.2-0.2-0.4-0.2c-1.3,0-2.5-0.7-3.1-1.8
	c0.4,0,0.8-0.1,1.3-0.2c0.3-0.1,0.4-0.4,0.3-0.6c-0.1-0.2-0.2-0.3-0.4-0.4c-1.5-0.3-2.6-1.4-2.9-2.9c0.4,0.1,0.9,0.2,1.3,0.2
	c0.2,0,0.4-0.1,0.5-0.3c0.1-0.2,0-0.4-0.2-0.6C4,8.6,3.4,7.4,3.4,6.2c0-0.4,0.1-0.8,0.2-1.2c2.2,2.4,5.3,3.8,8.5,4
	c0.2,0,0.3-0.1,0.4-0.2c0.1-0.1,0.1-0.3,0.1-0.4c-0.1-0.3-0.1-0.6-0.1-0.8c0-2.1,1.7-3.7,3.7-3.7c1,0,2,0.4,2.7,1.2
	c0.1,0.1,0.3,0.2,0.5,0.1c0.7-0.1,1.4-0.4,2.1-0.7C21.3,5.5,20.8,6.4,20.1,7.1z"/>
</svg>
