<svg width="234" height="73" viewBox="0 0 234 73" fill="none" xmlns="http://www.w3.org/2000/svg"><path d="M19.2461 58.4453c-1.5912 0-3.0807-.2539-4.4688-.7617-1.3541-.5078-2.5559-1.2188-3.6054-2.1328-1.0157-.9141-1.8282-1.9974-2.4375-3.25-.6094-1.2188-.931-2.556-.9649-4.0117-.0338-1.8959.2709-3.5886.914-5.0782.6095-1.4895 1.422-2.8099 2.4376-3.9609 1.0495-1.151 2.2344-2.1159 3.5547-2.8945 1.3203-.8125 2.6745-1.4727 4.0625-1.9805-.7448-.4062-1.4557-.8971-2.1328-1.4727a11.7203 11.7203 0 01-1.7266-1.9296c-.5078-.711-.9141-1.4558-1.2187-2.2344-.3047-.7787-.4571-1.5573-.4571-2.336-.0677-2.3697.4063-4.5195 1.4219-6.4492 1.0495-1.9297 2.3867-3.5716 4.0117-4.9258 1.625-1.388 3.4362-2.4544 5.4336-3.1992 2.0313-.7448 4.0117-1.1172 5.9414-1.1172 1.2865 0 2.3867.2201 3.3008.6602.9141.4062 1.6589.931 2.2344 1.5742.5755.6094.9987 1.2865 1.2695 2.0313.3047.7109.474 1.3711.5078 1.9804.0339 1.1172-.1185 2.2513-.457 3.4024-.3047 1.151-.711 2.2005-1.2188 3.1484-.4739.9141-1.0156 1.6758-1.625 2.2852-.6093.5755-1.2018.8632-1.7773.8632-.4401 0-.8971-.0677-1.3711-.2031-.4062-.1015-.8802-.2708-1.4219-.5078-.5416-.237-1.0833-.5924-1.625-1.0664.8802-.3385 1.6589-.8125 2.336-1.4219.677-.6432 1.2356-1.3541 1.6757-2.1328.474-.7786.8125-1.5742 1.0157-2.3867.2369-.8464.3554-1.6419.3554-2.3867-.0338-1.0834-.2877-1.9128-.7617-2.4883-.4739-.6094-1.2357-.9141-2.2851-.9141-1.4219 0-2.8438.3555-4.2657 1.0664-1.4218.6771-2.6914 1.642-3.8086 2.8946-1.0833 1.2187-1.9466 2.6914-2.5898 4.4179-.6094 1.6928-.8125 3.5378-.6094 5.5352.1693 1.5234.6263 2.8099 1.3711 3.8594.7787 1.0495 1.5065 1.862 2.1836 2.4375.5417-.0677 1.0495-.1185 1.5235-.1524.4739-.0677.914-.1015 1.3203-.1015.5755 0 1.151.1015 1.7265.3047.5755.2031.8633.4908.8633.8632 0 .2709-.0677.5756-.2031.9141-.1016.3385-.2878.6602-.5586.9648-.2708.3047-.5925.5586-.9649.7618-.3724.2031-.8125.3047-1.3203.3047-.4062 0-.8971-.1016-1.4726-.3047-.5755-.2032-1.1511-.4571-1.7266-.7618-1.2864.2709-2.4544.7618-3.5039 1.4727-1.0495.6771-1.9466 1.4896-2.6914 2.4375a11.9307 11.9307 0 00-1.6758 3.0977c-.4062 1.1171-.5924 2.2005-.5586 3.25.0339.9817.1862 1.9635.4571 2.9453.2708 1.0156.694 1.9127 1.2695 2.6914.5755.7786 1.3203 1.4049 2.2344 1.8789.9479.5078 2.082.7617 3.4023.7617.9818 0 1.9128-.2201 2.793-.6602.914-.4062 1.7604-.9309 2.539-1.5742a15.8613 15.8613 0 002.1328-2.1328c.6433-.7786 1.2019-1.5404 1.6758-2.2851.474-.7448.8633-1.4219 1.168-2.0313.3385-.6094.5755-1.0495.7109-1.3203.1016-.2031.237-.3555.4063-.457.2031-.1016.3893-.1185.5586-.0508.2031.0338.3554.1523.457.3554.1016.2032.1016.5079 0 .9141-.2708 1.2188-.7786 2.5729-1.5234 4.0625-.7448 1.5234-1.7097 2.9453-2.8946 4.2656-1.151 1.3204-2.5221 2.4206-4.1132 3.3008-1.5573.9141-3.3008 1.3711-5.2305 1.3711zm29.707-12.1367a24.0016 24.0016 0 01-1.2187 1.5234c-.4401.5078-.9141.9649-1.4219 1.3711-.5078.4063-1.0495.7279-1.625.9649-.5755.2708-1.1849.4062-1.8281.4062-1.5912 0-2.8268-.3216-3.7071-.9648-.8802-.6433-1.5403-1.405-1.9804-2.2852-.4063-.8802-.6433-1.7773-.711-2.6914-.1015-.9479-.1523-1.7096-.1523-2.2851 0-1.5573.3047-3.1316.9141-4.7227.6093-1.625 1.4218-3.0977 2.4375-4.418 1.0156-1.3203 2.1666-2.3867 3.4531-3.1992 1.3203-.8463 2.6575-1.2695 4.0117-1.2695.8464 0 1.5573.1862 2.1328.5586.5755.3385 1.0495.7617 1.4219 1.2695.3724.5078.6432 1.0495.8125 1.625.2031.5755.3385 1.0833.4062 1.5234.0677-.4062.1355-.8294.2032-1.2695a45.648 45.648 0 00.2031-1.2187 103.17 103.17 0 01.2031-1.2696 2.6695 2.6695 0 01.6602-.4062 7.4635 7.4635 0 01.8125-.2539 8.5907 8.5907 0 01.914-.1524c.3047 0 .5925.017.8633.0508.5417.0677.9141.2539 1.1172.5586-.9479 3.1146-1.625 5.4505-2.0312 7.0078-.237.8802-.4232 1.6419-.5586 2.2852-.1355.4739-.3386 1.2018-.6094 2.1836-.237.9817-.5248 2.1159-.8633 3.4023a350.5646 350.5646 0 00-1.0664 4.1641 265.6584 265.6584 0 00-1.0664 4.3164l2.3867-2.3867a97.1102 97.1102 0 002.6406-2.6407c.8802-.914 1.7435-1.845 2.5899-2.7929.8802-.9818 1.6927-1.9466 2.4375-2.8946.4401-.5416.8125-.8802 1.1172-1.0156.3385-.1354.5755-.1185.7109.0508.1354.1354.1693.3893.1016.7617-.0339.3386-.2032.7109-.5079 1.1172a141.2814 141.2814 0 01-1.7773 2.3867 110.888 110.888 0 01-2.0312 2.4883 132.8953 132.8953 0 01-2.0821 2.4375c-.7109.8125-1.388 1.5573-2.0312 2.2344-.6771.6771-1.4219 1.388-2.2344 2.1328-.8125.7786-1.6081 1.6758-2.3867 2.6914a177.3498 177.3498 0 00-.3555 1.7266 42.8816 42.8816 0 01-.2031 1.371c-.1693 1.1849-.2878 2.1836-.3555 2.9961-.0338.8464-.0508 1.5743-.0508 2.1836 0 .6433.017 1.2188.0508 1.7266.0339.5417.0508 1.1003.0508 1.6758.0339 1.2187-.0169 2.0651-.1523 2.539-.1016.474-.4909.711-1.168.711-.3386 0-.7787-.1524-1.3203-.4571-.5417-.3046-1.0664-.7278-1.5742-1.2695-.5079-.5416-.948-1.2018-1.3204-1.9805-.3385-.7786-.5078-1.6588-.5078-2.6406 0-1.2864.2539-2.556.7618-3.8086.5078-1.2187 1.1848-2.4205 2.0312-3.6054.237-.8464.4909-1.7943.7617-2.8438.3047-1.0495.6094-2.1328.9141-3.25.3047-1.0833.6094-2.1836.914-3.3008.3047-1.1172.5925-2.1666.8633-3.1484zm-8.2773-2.5898c0 .9817.1185 1.7434.3554 2.2851.2709.5417.5756.9479.9141 1.2188.3724.2369.7448.3724 1.1172.4062.3724.0339.6771.0508.9141.0508.7109 0 1.4049-.2878 2.082-.8633.6771-.6094 1.2865-1.3542 1.8281-2.2344.5755-.8802 1.0664-1.8281 1.4727-2.8437.4401-1.0495.7617-2.0143.9648-2.8945.1016-.5079.1862-.9649.2539-1.3711l.2539-1.0157c-.6432.0677-1.0833-.0677-1.3203-.4062-.237-.3386-.3724-.931-.4062-1.7774 0-.3385-.0339-.694-.1016-1.0664-.0677-.4062-.1862-.7617-.3555-1.0664-.1692-.3385-.3893-.6094-.6601-.8125-.2709-.2031-.6094-.3047-1.0156-.3047-.8803 0-1.7097.4063-2.4883 1.2188-.7448.8125-1.405 1.845-1.9805 3.0976-.5755 1.2526-1.0325 2.6237-1.3711 4.1133-.3047 1.4896-.457 2.9115-.457 4.2657zm26.2539 6.0937c-1.2865 0-2.3359-.2031-3.1485-.6094-.8124-.4062-1.4557-.8971-1.9296-1.4726-.4401-.6094-.7618-1.2526-.9649-1.9297-.1693-.711-.2539-1.3542-.2539-1.9297 0-1.0156.0846-2.082.2539-3.1992.1693-1.1511.3724-2.2005.6094-3.1485.237-.9817.4401-1.8112.6094-2.4882.2031-.6771.3385-1.1003.4062-1.2696.3047-.9817.694-1.8281 1.168-2.539.5078-.7448 1.2018-1.2526 2.082-1.5235.3386-.0677.694-.1354 1.0664-.2031a8.2605 8.2605 0 01.9141-.0508c.3385 0 .6432.0508.914.1524-.914 2.3359-1.6419 4.2825-2.1835 5.8398-.5079 1.5573-.8972 2.8268-1.168 3.8086-.3047 1.1172-.4909 2.0143-.5586 2.6914-.1693 1.5234-.0339 2.6745.4062 3.4531.4401.7787 1.3373 1.168 2.6915 1.168.8802 0 1.7265-.3216 2.539-.9648.8125-.6771 1.5573-1.5404 2.2344-2.5899-.1016-.5417-.1524-1.1002-.1524-1.6758 0-1.0833.0847-2.1328.254-3.1484.2031-1.0495.4231-2.0143.6601-2.8945.2708-.9141.5417-1.7266.8125-2.4375.3047-.711.5586-1.2696.7617-1.6758.3724-.8125.711-1.3034 1.0157-1.4727.3046-.2031.7955-.3216 1.4726-.3554.2708-.0339.4909-.0339.6602 0 .2031 0 .3724.0169.5078.0507.4062.1016.6094.3047.6094.6094 0 .5417-.0339 1.3542-.1016 2.4375s-.2708 2.2005-.6094 3.3516c-.237.9479-.4739 1.7604-.7109 2.4375-.2031.6432-.4063 1.2018-.6094 1.6758-.2031.4401-.4063.8125-.6094 1.1171a41.1913 41.1913 0 00-.5586.7618c.0677 1.0156.1524 1.8281.2539 2.4375.1016.6093.2201 1.0833.3555 1.4218.1693.3047.3555.5248.5586.6602.237.1016.4909.1523.7617.1523.474 0 1.0326-.22 1.6758-.6601.6432-.474 1.3034-1.0495 1.9805-1.7266.7109-.7109 1.4049-1.4726 2.082-2.2851.7109-.8464 1.3542-1.642 1.9297-2.3868.5755-.7447 1.0664-1.388 1.4726-1.9296.4063-.5756.6602-.931.7618-1.0665.2369-.3046.457-.4908.6601-.5585.237-.0678.4232-.0339.5586.1015.1354.1016.2031.2878.2031.5586.0339.237-.0338.5078-.2031.8125-.6771 1.2865-1.5234 2.6576-2.5391 4.1133-.9817 1.4219-2.0481 2.7422-3.1992 3.9609-1.1172 1.2188-2.2513 2.2344-3.4023 3.0469-1.1511.8125-2.2344 1.2188-3.25 1.2188-.9141 0-1.6419-.3047-2.1836-.9141-.5078-.6432-.9479-1.5573-1.3203-2.7422-.7787 1.2188-1.6927 2.1667-2.7422 2.8438-1.0495.6432-2.2175.9648-3.5039.9648zm44.1293-10.918c-.474.6771-1.084 1.5235-1.829 2.5391-.744.9818-1.523 1.9805-2.335 2.9961-.779.9818-1.558 1.8958-2.336 2.7422-.745.8125-1.371 1.388-1.879 1.7265-.339.2032-.728.3724-1.168.5078-.44.1355-.897.2201-1.371.254-.4405.0338-.8637 0-1.2699-.1016-.4063-.0677-.7617-.2031-1.0664-.4063-.3047-.2369-.5586-.5755-.7617-1.0156-.1693-.3724-.3386-.8633-.5078-1.4726-.1355-.6094-.1862-1.3711-.1524-2.2852-.8125 1.3542-1.7096 2.4037-2.6914 3.1484-.9818.711-1.9128 1.2357-2.793 1.5743-1.0156.3724-2.0312.5924-3.0468.6601-.474 0-.9818-.1693-1.5235-.5078-.5416-.3047-.9987-.7956-1.3711-1.4727-.3724-.7109-.6093-1.608-.7109-2.6914-.1016-1.1171.0338-2.4375.4062-3.9609.474-2.0651 1.2188-3.944 2.2344-5.6367 1.0495-1.6927 2.1836-3.1315 3.4024-4.3164 1.2187-1.2188 2.4205-2.1328 3.6054-2.7422 1.1849-.6094 2.1667-.8802 2.9453-.8125.9141.1693 1.6589.4401 2.2344.8125.474.3385.7787.8463.9141 1.5234.1697.6433-.1016 1.5065-.8125 2.5899.4739-.1016.8632-.1693 1.1682-.2031.338-.0339.592-.0508.761-.0508.204 0 .339.0169.407.0508.034.0677.05.22.05.457 0 .2031-.05.5924-.152 1.168-.101.5755-.254 1.3541-.457 2.3359s-.474 2.2513-.812 3.8086c-.068.3047-.136.5924-.2035.8633-.0339.2369-.0846.4908-.1523.7617-.0339.237-.0847.5247-.1524.8633l-.2539 1.2695c-.0338.3047-.0508.6432-.0508 1.0156.0339.3386.1016.6602.2031.9649.1016.3046.254.5586.4571.7617.2367.1693.5587.2539.9647.2539.339 0 .779-.2031 1.32-.6094.542-.4401 1.118-.9818 1.727-1.625a68.2684 68.2684 0 001.879-2.1836c.677-.8125 1.303-1.5911 1.879-2.3359.575-.7448 1.083-1.405 1.523-1.9805.474-.5755.813-.9987 1.016-1.2695.271-.3047.542-.474.812-.5078.271-.0677.474 0 .61.2031.135.2031.152.5078.051.9141-.068.4062-.305.8802-.711 1.4218zm-14.8793 2.2344c.1693-.6771.3724-1.4727.6094-2.3867.2369-.9141.4401-1.7943.6093-2.6406.1693-.8464.2878-1.5404.3555-2.0821.1016-.5755.0846-.8463-.0508-.8125-.1692.0339-.3554.0847-.5586.1524-.1692.0677-.3893.1185-.6601.1523a6.8592 6.8592 0 00-.8125.1524c.2708-.5417.4232-.9818.457-1.3203.0677-.3724.0846-.6602.0508-.8633-.0339-.237-.1016-.4232-.2031-.5586-.3724-.3047-1.0326-.0508-1.9805.7617-.9141.7786-1.9805 2.2344-3.1992 4.3672-.5078.8802-.9141 1.8281-1.2188 2.8437-.3047.9818-.5247 1.9128-.6601 2.793-.1016.8802-.1185 1.6589-.0508 2.3359.0677.6433.2031 1.0664.4062 1.2696.3724.3724.7956.5586 1.2696.5586.4739-.0339.9479-.1693 1.4218-.4063.5079-.2708.9987-.6094 1.4727-1.0156.5078-.4063.9479-.8294 1.3203-1.2695.4063-.4401.7279-.8464.9649-1.2188.2708-.3724.4231-.6432.457-.8125zm10.7153 7.0586c1.489-6.263 2.674-11.2904 3.554-15.082.914-3.7917 1.608-6.6862 2.082-8.6836.542-2.3698.914-4.0117 1.117-4.9258.102-.6432.187-1.2695.254-1.8789.068-.5417.102-1.1003.102-1.6758 0-.5755-.051-1.1003-.152-1.5742.27-.1693.558-.3047.863-.4063.338-.1015.66-.1862.965-.2539.372-.1015.744-.1862 1.117-.2539.372-.0677.711-.1015 1.015-.1015.271 0 .525.0338.762.1015.237.0339.39.1354.457.3047.203.1693.288.5078.254 1.0156 0 .5078-.034 1.0326-.101 1.5743-.136.6432-.288 1.3372-.457 2.082-.407 1.4557-.965 3.5547-1.676 6.2969-.61 2.3359-1.439 5.5182-2.489 9.5468-1.015 4.0287-2.302 9.1068-3.859 15.2344-.169.1693-.372.2878-.609.3555-.237.0677-.457.1015-.66.1015-.237 0-.491-.0169-.762-.0507-.237-.0677-.474-.1693-.711-.3047-.203-.1354-.406-.3216-.609-.5586-.204-.2031-.356-.4909-.457-.8633z" fill="#B68BF0"/><path d="M126.191 47.2734c.204.1355.457.2032.762.2032.339 0 .66-.0677.965-.2032a3.154 3.154 0 00.914-.5586c.305-.2369.525-.5416.66-.914.136-.3724.136-.8972 0-1.5742-.135-.711-.355-1.4558-.66-2.2344a35.4885 35.4885 0 00-.914-2.4375c-.339-.8125-.626-1.5573-.863-2.2344-.203-.5078-.373-.9818-.508-1.4219a39.1146 39.1146 0 00-.406-1.0664c-.102-.3724-.187-.6263-.254-.7617-.17.2708-.474.7109-.914 1.3203-.407.6094-.864 1.2526-1.371 1.9297-.474.6432-.931 1.2526-1.372 1.8281-.44.5417-.744.9141-.914 1.1172-.27.3047-.541.4909-.812.5586-.237.0339-.44-.0169-.609-.1523-.17-.1693-.271-.3893-.305-.6602 0-.3047.135-.6601.406-1.0664.203-.2708.508-.694.914-1.2695.406-.6094.813-1.2188 1.219-1.8281.406-.6433.779-1.2019 1.117-1.6758.339-.5078.525-.8125.559-.9141.067-.2708-.034-.6263-.305-1.0664-.237-.4401-.271-.9479-.102-1.5234.136-.474.441-1.0157.914-1.625.474-.6433 1.033-1.2188 1.676-1.7266.644-.5078 1.304-.8802 1.981-1.1172.677-.2708 1.286-.2708 1.828 0 .44.2709.795.5755 1.066.9141.271.3047.373.6263.305.9648-.068.1693-.169.3893-.305.6602-.135.2708-.338.6094-.609 1.0156-.271.3724-.66.8633-1.168 1.4727.102.7786.237 1.4895.406 2.1328.203.6432.39 1.2018.559 1.6758.203.5755.423 1.1002.66 1.5742.305.6094.626 1.2357.965 1.8789.338.6432.643 1.2864.914 1.9297.271.6093.491 1.1849.66 1.7265.169.5417.22.9987.152 1.3711-.101.5755-.406 1.2696-.914 2.0821-.474.8125-1.083 1.608-1.828 2.3867-.711.7448-1.54 1.388-2.488 1.9297-.914.5416-1.879.8125-2.895.8125-.711 0-1.405-.2201-2.082-.6602-.643-.4401-1.202-.9479-1.675-1.5234-.441-.6094-.779-1.2019-1.016-1.7774-.203-.5755-.22-1.0156-.051-1.3203.203-.4062.389-.7279.559-.9648.169-.237.423-.5078.761-.8125.136-.1016.305-.2201.508-.3555.17-.1016.407-.2031.711-.3047l1.067-.3555c.338 1.0495.643 1.8789.914 2.4883.27.5755.491 1.0326.66 1.3711.203.3724.389.6263.558.7617zm37.325-9.4453c.237-.2708.474-.4062.711-.4062.27-.0339.474.0338.609.2031.169.1354.237.3555.203.6602 0 .3046-.135.6432-.406 1.0156-.643.8802-1.388 1.7943-2.235 2.7422-.846.914-1.76 1.8112-2.742 2.6914a49.3222 49.3222 0 01-2.894 2.4883c-.982.7786-1.93 1.4218-2.844 1.9296-1.016.5756-1.879.8633-2.59.8633-.677 0-1.354-.4401-2.031-1.3203-.609-.7786-.914-1.6081-.914-2.4883.034-.914.237-2.0481.609-3.4023.237-.8464.559-1.8451.965-2.9961.44-1.1849.779-2.319 1.016-3.4024.27-1.0833.355-1.9973.254-2.7421-.102-.7787-.542-1.168-1.321-1.168-.541 0-1.134.1862-1.777.5586-.609.3724-1.236.8633-1.879 1.4726-.609.5756-1.202 1.2357-1.777 1.9805-.576.7448-1.084 1.4727-1.524 2.1836a773.5537 773.5537 0 01-.812 3.9102 471.4817 471.4817 0 00-.762 3.5546c-.237 1.2527-.474 2.3698-.711 3.3516-.203.1693-.423.2878-.66.3555-.237.0677-.457.1015-.66.1015-.237 0-.474-.0169-.711-.0507a2.9881 2.9881 0 01-.762-.3047c-.203-.1354-.406-.3216-.609-.5586-.203-.2031-.356-.4909-.457-.8633 1.523-6.263 2.725-11.2904 3.605-15.082.88-3.7917 1.557-6.6862 2.031-8.6836.542-2.3698.914-4.0117 1.118-4.9258.101-.6432.186-1.2695.253-1.8789.068-.5417.102-1.1003.102-1.6758 0-.5755-.051-1.1003-.152-1.5742.271-.1693.558-.3047.863-.4063.339-.1015.66-.1862.965-.2539.372-.1015.745-.1862 1.117-.2539.372-.0677.711-.1015 1.016-.1015.27 0 .524.0338.761.1015.237.0339.39.1354.457.3047.204.1693.288.5078.254 1.0156 0 .5078-.034 1.0326-.101 1.5743-.136.6432-.288 1.3372-.457 2.082-.711 2.7422-1.507 5.4167-2.387 8.0234-.88 2.5729-1.693 5.3321-2.438 8.2774.441-.6771.965-1.3711 1.575-2.0821.609-.7109 1.269-1.3541 1.98-1.9296.745-.6094 1.524-1.1003 2.336-1.4727.813-.4063 1.676-.6094 2.59-.6094.474 0 .914.0847 1.32.2539.44.1354.813.3893 1.117.7617.339.3386.593.8125.762 1.4219.169.5755.237 1.3034.203 2.1836 0 .5417-.067 1.1003-.203 1.6758-.101.5755-.254 1.2187-.457 1.9297-.203.6771-.474 1.4388-.812 2.2851-.305.8464-.677 1.8282-1.118 2.9454-.304.7786-.541 1.4388-.71 1.9804-.17.5417-.136 1.0156.101 1.4219.305.5417.897.6771 1.777.4062.915-.3046 2.269-1.1849 4.063-2.6406.406-.3385.863-.7617 1.371-1.2695s.999-1.0156 1.473-1.5234c.474-.5417.914-1.0495 1.32-1.5235.406-.4739.745-.8463 1.016-1.1172zm24.07 1.0664c-.474.6771-1.083 1.5235-1.828 2.5391-.745.9818-1.524 1.9805-2.336 2.9961-.779.9818-1.557 1.8958-2.336 2.7422-.745.8125-1.371 1.388-1.879 1.7265-.339.2032-.728.3724-1.168.5078-.44.1355-.897.2201-1.371.254-.44.0338-.863 0-1.27-.1016-.406-.0677-.761-.2031-1.066-.4063-.305-.2369-.559-.5755-.762-1.0156-.169-.3724-.338-.8633-.508-1.4726-.135-.6094-.186-1.3711-.152-2.2852-.812 1.3542-1.709 2.4037-2.691 3.1484-.982.711-1.913 1.2357-2.793 1.5743-1.016.3724-2.031.5924-3.047.6601-.474 0-.982-.1693-1.524-.5078-.541-.3047-.998-.7956-1.371-1.4727-.372-.7109-.609-1.608-.711-2.6914-.101-1.1171.034-2.4375.407-3.9609.474-2.0651 1.218-3.944 2.234-5.6367 1.05-1.6927 2.184-3.1315 3.402-4.3164 1.219-1.2188 2.421-2.1328 3.606-2.7422 1.185-.6094 2.167-.8802 2.945-.8125.914.1693 1.659.4401 2.235.8125.474.3385.778.8463.914 1.5234.169.6433-.102 1.5065-.813 2.5899.474-.1016.863-.1693 1.168-.2031.339-.0339.593-.0508.762-.0508.203 0 .338.0169.406.0508.034.0677.051.22.051.457 0 .2031-.051.5924-.152 1.168-.102.5755-.254 1.3541-.458 2.3359-.203.9818-.473 2.2513-.812 3.8086-.068.3047-.135.5924-.203.8633-.034.2369-.085.4908-.153.7617-.033.237-.084.5247-.152.8633-.068.3385-.152.7617-.254 1.2695-.034.3047-.051.6432-.051 1.0156.034.3386.102.6602.204.9649.101.3046.253.5586.457.7617.237.1693.558.2539.964.2539.339 0 .779-.2031 1.321-.6094.541-.4401 1.117-.9818 1.726-1.625.61-.6771 1.236-1.4049 1.879-2.1836.677-.8125 1.304-1.5911 1.879-2.3359.576-.7448 1.083-1.405 1.524-1.9805.474-.5755.812-.9987 1.015-1.2695.271-.3047.542-.474.813-.5078.271-.0677.474 0 .609.2031.136.2031.152.5078.051.9141-.068.4062-.305.8802-.711 1.4218zm-14.879 2.2344c.169-.6771.372-1.4727.609-2.3867.237-.9141.441-1.7943.61-2.6406.169-.8464.288-1.5404.355-2.0821.102-.5755.085-.8463-.051-.8125-.169.0339-.355.0847-.558.1524-.169.0677-.389.1185-.66.1523a6.871 6.871 0 00-.813.1524c.271-.5417.423-.9818.457-1.3203.068-.3724.085-.6602.051-.8633-.034-.237-.102-.4232-.203-.5586-.372-.3047-1.033-.0508-1.981.7617-.914.7786-1.98 2.2344-3.199 4.3672-.508.8802-.914 1.8281-1.219 2.8437-.304.9818-.524 1.9128-.66 2.793-.101.8802-.118 1.6589-.05 2.3359.067.6433.203 1.0664.406 1.2696.372.3724.795.5586 1.269.5586.474-.0339.948-.1693 1.422-.4063.508-.2708.999-.6094 1.473-1.0156.508-.4063.948-.8294 1.32-1.2695.406-.4401.728-.8464.965-1.2188.271-.3724.423-.6432.457-.8125zm9.547 7.6172c-.237.3724-.491.6094-.762.7109-.304.1354-.558.1524-.762.0508-.237-.0677-.389-.237-.457-.5078-.067-.2708 0-.6094.204-1.0156.101-.2032.338-.6602.711-1.3711.338-.711.761-1.5573 1.269-2.5391.474-1.0156.999-2.0989 1.574-3.25.576-1.1849 1.117-2.3021 1.625-3.3515.542-1.0495 1.033-1.9805 1.473-2.793.44-.8464.762-1.4557.965-1.8281-.373-.3386-.627-.5756-.762-.711-.135-.1692-.237-.5078-.305-1.0156-.067-.4401.034-1.0156.305-1.7266.271-.7109.626-1.388 1.066-2.0312.441-.6771.931-1.2526 1.473-1.7266.542-.4739 1.067-.7109 1.574-.7109.948 0 1.608.3047 1.981.9141.406.6093.643 1.2356.711 1.8789.067.4401.034.9987-.102 1.6757-.135.6771-.389 1.2865-.762 1.8282.102.0677.237.1523.407.2539.169.0677.44.1015.812.1015.542 0 .914-.0338 1.117-.1015.237-.0677.593-.1016 1.067-.1016.575 0 1.049.1523 1.422.457.372.2709.677.6263.914 1.0664.237.4063.406.8633.508 1.3711.135.474.22.9141.253 1.3204.102.8463-.118 1.7265-.66 2.6406-.541.914-1.202 1.9127-1.98 2.9961-.474.6771-.948 1.4388-1.422 2.2851-.474.8464-.677 1.6081-.609 2.2852.067.4401.186.7956.355 1.0664.169.2708.643.4062 1.422.4062.575 0 1.202-.2031 1.879-.6093.711-.4401 1.422-.9818 2.133-1.625.744-.6771 1.472-1.405 2.183-2.1836a93.994 93.994 0 001.981-2.336c.609-.7786 1.117-1.4726 1.523-2.082.44-.6094.762-1.0495.965-1.3203.169-.2708.389-.457.66-.5586.271-.1016.508-.1016.711 0 .203.1016.322.3047.356.6094.067.3047-.051.7109-.356 1.2187-.203.3386-.559.8802-1.066 1.625-.474.7448-1.067 1.5742-1.778 2.4883-.677.9141-1.438 1.862-2.285 2.8438a28.22 28.22 0 01-2.691 2.6406c-.914.7786-1.845 1.4218-2.793 1.9297-.914.5078-1.794.7617-2.641.7617-.88 0-1.608-.1693-2.183-.5078-.576-.3386-1.05-.7448-1.422-1.2188-.339-.5078-.593-1.0495-.762-1.625-.135-.6094-.186-1.168-.152-1.6758.033-.4062.135-.8294.304-1.2695.203-.474.423-.9479.66-1.4219.271-.5078.542-.9987.813-1.4726.305-.5078.575-.9987.812-1.4727.576-.9818 1.033-1.8112 1.372-2.4883.372-.7109.558-1.3033.558-1.7773 0-.3047-.068-.5755-.203-.8125s-.355-.3555-.66-.3555c-.203 0-.356.017-.457.0508h-.254c-.068 0-.186.0169-.356.0508h-.66c-.44 0-.812-.0677-1.117-.2031-.305-.1355-.592-.237-.863-.3047-.136.237-.44.7448-.914 1.5234-.474.7787-1.033 1.6927-1.676 2.7422-.609 1.0495-1.27 2.1497-1.98 3.3008a485.1441 485.1441 0 01-1.93 3.25c-.61.9818-1.117 1.8281-1.524 2.539-.44.6771-.711 1.0834-.812 1.2188zm46.058-10.3086c-1.015 1.4896-2.166 2.9453-3.453 4.3672-1.286 1.388-2.657 2.6406-4.113 3.7578-1.422 1.0833-2.894 1.9635-4.418 2.6406-1.489.6771-2.945 1.0157-4.367 1.0157-.745 0-1.557-.1862-2.438-.5586-.846-.3386-1.625-.8803-2.335-1.625-.711-.7448-1.287-1.7097-1.727-2.8946-.406-1.1849-.525-2.6237-.356-4.3164.136-1.388.559-2.8437 1.27-4.3672.745-1.5573 1.642-2.9791 2.691-4.2656 1.084-1.2865 2.286-2.3529 3.606-3.1992 1.354-.8464 2.708-1.2695 4.062-1.2695 1.287 0 2.218.3216 2.793.9648.576.6432.83 1.4388.762 2.3867-.101 1.0495-.406 2.0143-.914 2.8946-.474.8802-1.049 1.6757-1.727 2.3867a16.8486 16.8486 0 01-2.183 1.9297c-.745.5755-1.456 1.1002-2.133 1.5742-.745.5078-1.456.9987-2.133 1.4726-.677.4401-1.269.8464-1.777 1.2188.034.8463.186 1.5573.457 2.1328.271.5755.609 1.0495 1.016 1.4219.406.3385.863.5924 1.371.7617.541.1354 1.083.2031 1.625.2031 1.151 0 2.352-.3555 3.605-1.0664 1.253-.7448 2.471-1.625 3.656-2.6406 1.219-1.0495 2.336-2.1328 3.352-3.25 1.049-1.1172 1.913-2.0821 2.59-2.8945.237-.2709.474-.4232.711-.4571.271-.0677.474-.0338.609.1016.169.1015.254.3047.254.6094 0 .2708-.119.5924-.356.9648zm-13-7.8203c-.406 0-.897.2031-1.472.6094-.542.4062-1.083.9987-1.625 1.7773-.542.7448-1.05 1.6758-1.524 2.793-.474 1.0833-.829 2.3359-1.066 3.7578.406-.3047.846-.6094 1.32-.9141.474-.3385.948-.694 1.422-1.0664 1.456-1.1172 2.472-2.0989 3.047-2.9453.576-.8463.897-1.5742.965-2.1836.068-.6432 0-1.1002-.203-1.3711-.203-.3047-.491-.457-.864-.457z" fill="#fff"/></svg>